<?xml version="1.0" encoding="utf-8"?>
<?xml-stylesheet type="text/xsl" href="rss1.xsl"?>
<rss version="2.0" xmlns:atom="http://www.w3.org/2005/Atom" xmlns:content="http://purl.org/rss/1.0/modules/content/" xmlns:dc="http://purl.org/dc/elements/1.1/" xmlns:media="http://search.yahoo.com/mrss/">
<channel>
 <title>Getty</title>
 <link>http://www.gettyimg.com/</link>
 <atom:link href="http://www.gettyimg.com/" rel="self" type="application/rss+xml" />

 
                <item>
                <title><![CDATA[【Cinema Center】SERIES - UniKitty! Season 1-3 1080p HBO Max WEB-DL DD5.1 x264-LAZY]]></title>
                <link><![CDATA[https://sharemania.us/threads/unikitty-season-1-3-1080p-hbo-max-web-dl-dd5-1-x264-lazy.219752/]]></link>
                <description><![CDATA[<article>
<blockquote class="messageText SelectQuoteContainer ugc baseHtml">
UniKitty:<img src="https://i.imgaa.com/2021/01/14/5fffcda551c02277464016.jpg" class="bbCodeImage LbImage" alt="[​IMG]" data-url="https://i.imgaa.com/2021/01/14/5fffcda551c02277464016.jpg" style=""><br>
<br>
<div class="bbCodeBlock bbCodeQuote">
<aside>
<blockquote class="quoteContainer"><div class="quote"><i><b>Synopsis:</b></i><br>
As ruler of the kingdom, Unikitty has busy days full of royal responsibilities. Unikitty is most interested in making sure everyone is happy and ridding the kingdom of negativity, but don’t misunderstand her optimism – she is one kitty not to be crossed. While she may be full of boundless energy and creativity, Unikitty is a force to be reckoned with if anyone gets in the way of spreading her positive vibes, especially if anyone makes her little brother and best friend, Puppycorn, sad. Also living in the castle are Dr. Fox, the resident scientist, and Unikitty’s trusty bodyguard, Hawkodile. Through it all, Unikitty and her friends make sure that every day is the happiest and most creative ever.</div><div class="quoteExpand">Click to expand...</div></blockquote>
</aside>
</div>
<div class="ToggleTriggerAnchor bbCodeSpoilerContainer">
<button type="button" class="button bbCodeSpoilerButton ToggleTrigger Tooltip JsOnly" data-target="> .SpoilerTarget"><span>Spoiler: <span class="SpoilerTitle">MediaInfo</span></span></button>
<div class="SpoilerTarget bbCodeSpoilerText">General<br>
Unique ID : 152433177416077066559753687718466361354 (0x72AD8FE52792F8E470F1551D305F180A)<br>
Complete name : Unikitty.S01E01.Sparkle.Matter.Matters.1080p.HMAX.WEB-DL.DD5.1.x264-LAZY.mkv<br>
Format : Matroska<br>
Format version : Version 4<br>
File size : 685 MiB<br>
Duration : 11 min 15 s<br>
Overall bit rate mode : Variable<br>
Overall bit rate : 8 505 kb/s<br>
Encoded date : UTC 2022-09-11 16:38:26<br>
Writing application : mkvmerge v70.0.0 ('Caught A Lite Sneeze') 64-bit<br>
Writing library : libebml v1.4.2 + libmatroska v1.6.4<br>
<br>
Video<br>
ID : 1<br>
Format : AVC<br>
Format/Info : Advanced Video Codec<br>
Format profile : High@L4<br>
Format settings : CABAC / 4 Ref Frames<br>
Format settings, CABAC : Yes<br>
Format settings, Reference frames : 4 frames<br>
Codec ID : V_MPEG4/ISO/AVC<br>
Duration : 11 min 15 s<br>
Bit rate mode : Variable<br>
Bit rate : 8 250 kb/s<br>
Maximum bit rate : 12.4 Mb/s<br>
Width : 1 920 pixels<br>
Height : 1 080 pixels<br>
Display aspect ratio : 16:9<br>
Frame rate mode : Constant<br>
Frame rate : 23.976 (24000/1001) FPS<br>
Color space : YUV<br>
Chroma subsampling : 4:2:0<br>
Bit depth : 8 bits<br>
Scan type : Progressive<br>
Bits/(Pixel*Frame) : 0.166<br>
Stream size : 654 MiB (95%)<br>
Writing library : x264 core 157 r2965 861cec4<br>
Encoding settings : cabac=1 / ref=4 / deblock=1:0:0 / analyse=0x3:0x113 / me=hex / subme=7 / psy=1 / psy_rd=1.00:0.00 / mixed_ref=1 / me_range=16 / chroma_me=1 / trellis=1 / 8x8dct=1 / cqm=0 / deadzone=21,11 / fast_pskip=1 / chroma_qp_offset=-2 / threads=34 / lookahead_threads=5 / sliced_threads=0 / nr=0 / decimate=1 / interlaced=0 / bluray_compat=0 / constrained_intra=0 / bframes=3 / b_pyramid=2 / b_adapt=1 / b_bias=0 / direct=1 / weightb=1 / open_gop=0 / weightp=2 / keyint=96 / keyint_min=96 / scenecut=40 / intra_refresh=0 / rc_lookahead=40 / rc=2pass / mbtree=1 / bitrate=8250 / ratetol=1.0 / qcomp=0.60 / qpmin=0 / qpmax=69 / qpstep=4 / cplxblur=20.0 / qblur=0.5 / vbv_maxrate=12375 / vbv_bufsize=6187 / nal_hrd=vbr / filler=0 / ip_ratio=1.40 / aq=1:1.00<br>
Default : Yes<br>
Forced : No<br>
Color range : Limited<br>
Color primaries : BT.709<br>
Transfer characteristics : BT.709<br>
Matrix coefficients : BT.709<br>
<br>
Audio<br>
ID : 2<br>
Format : AC-3<br>
Format/Info : Audio Coding 3<br>
Commercial name : Dolby Digital<br>
Codec ID : A_AC3<br>
Duration : 11 min 15 s<br>
Bit rate mode : Constant<br>
Bit rate : 384 kb/s<br>
Channel(s) : 6 channels<br>
Channel layout : L R C LFE Ls Rs<br>
Sampling rate : 48.0 kHz<br>
Frame rate : 31.250 FPS (1536 SPF)<br>
Compression mode : Lossy<br>
Stream size : 30.9 MiB (5%)<br>
Language : English<br>
Service kind : Complete Main<br>
Default : Yes<br>
Forced : No<br>
<br>
Text #1<br>
ID : 3<br>
Format : UTF-8<br>
Codec ID : S_TEXT/UTF8<br>
Codec ID/Info : UTF-8 Plain Text<br>
Duration : 11 min 2 s<br>
Bit rate : 96 b/s<br>
Frame rate : 0.426 FPS<br>
Count of elements : 282<br>
Stream size : 7.83 KiB (0%)<br>
Title : SDH<br>
Language : English<br>
Default : No<br>
Forced : No<br>
<br>
Text #2<br>
ID : 4<br>
Format : UTF-8<br>
Codec ID : S_TEXT/UTF8<br>
Codec ID/Info : UTF-8 Plain Text<br>
Duration : 11 min 0 s<br>
Bit rate : 76 b/s<br>
Frame rate : 0.277 FPS<br>
Count of elements : 183<br>
Stream size : 6.19 KiB (0%)<br>
Title : Latin American<br>
Language : Spanish<br>
Default : No<br>
Forced : No<br>
<br>
Text #3<br>
ID : 5<br>
Format : UTF-8<br>
Codec ID : S_TEXT/UTF8<br>
Codec ID/Info : UTF-8 Plain Text<br>
Duration : 11 min 0 s<br>
Bit rate : 76 b/s<br>
Frame rate : 0.280 FPS<br>
Count of elements : 185<br>
Stream size : 6.20 KiB (0%)<br>
Title : Brazilian<br>
Language : Portuguese<br>
Default : No<br>
Forced : No</div>
</div><br>
Screenshots:<br>
<img src="https://i.imgur.com/Q35583P.jpg" class="bbCodeImage LbImage" alt="[​IMG]" data-url="https://i.imgur.com/Q35583P.jpg" style=""> <br>
<br>
<div class="bbCodeBlock bbCodeVfcHH HiddenContent">
<div class="attribution type">Hidden Content:</div>
<blockquote>You must either reply or click 'Like' to see the hidden information contained here.</blockquote>
</div>
<div class="messageTextEndMarker">&nbsp;</div>
</blockquote>
</article>]]></description>
                <author><![CDATA[LazyRips]]></author>
                </item>

                
                <item>
                <title><![CDATA[【UPSCALED】Richard Lugo - Boom (Cibola Club Edit) (Promo Only) 4K 60fps AI Upscale]]></title>
                <link><![CDATA[https://sharemania.us/threads/richard-lugo-boom-cibola-club-edit-promo-only-4k-60fps-ai-upscale.219751/]]></link>
                <description><![CDATA[<article>
<blockquote class="messageText SelectQuoteContainer ugc baseHtml">
<img src="https://i.ibb.co/XsR803z/Richard-Lugo-Boom-Cibola-Club-Edit-Promo-Only-4-K-60fps-AI-Upscale-mp4.jpg" class="bbCodeImage LbImage" alt="[​IMG]" data-url="https://i.ibb.co/XsR803z/Richard-Lugo-Boom-Cibola-Club-Edit-Promo-Only-4-K-60fps-AI-Upscale-mp4.jpg" style=""> <br>
<br>
<div class="bbCodeBlock bbCodeVfcHH HiddenContent">
<div class="attribution type">Hidden Content:</div>
<blockquote>You must reply before you can see the hidden data contained here.</blockquote>
</div>
<div class="messageTextEndMarker">&nbsp;</div>
</blockquote>
</article>]]></description>
                <author><![CDATA[babieboyblew]]></author>
                </item>

                
                <item>
                <title><![CDATA[【Music Videos】Mariah Carey feat. Fatman Scoop - It's Like That (Bass Mix Novák Edit Version) (2005) (fan Made)]]></title>
                <link><![CDATA[https://sharemania.us/threads/mariah-carey-feat-fatman-scoop-its-like-that-bass-mix-nov%C3%A1k-edit-version-2005-fan-made.219749/]]></link>
                <description><![CDATA[<article>
<blockquote class="messageText SelectQuoteContainer ugc baseHtml">
<div style="text-align: center"><img src="https://i.postimg.cc/C5fzvcwC/Mariah-Carey-It-s-Like-That-by-novak.jpg" class="bbCodeImage LbImage" alt="[​IMG]" data-url="https://i.postimg.cc/C5fzvcwC/Mariah-Carey-It-s-Like-That-by-novak.jpg" style=""> <br>
<br>
<img src="https://i.postimg.cc/BZdgJyP0/Mariah-Carey-feat-Fatman-Scoop-It-s-Like-That-Bass-Mix-Nov-k-Edit-Version-2005-fan-Made-mp4.jpg" class="bbCodeImage LbImage" alt="[​IMG]" data-url="https://i.postimg.cc/BZdgJyP0/Mariah-Carey-feat-Fatman-Scoop-It-s-Like-That-Bass-Mix-Nov-k-Edit-Version-2005-fan-Made-mp4.jpg" style=""> ​</div><span style="font-family: 'Trebuchet MS'"><span style="font-size: 9px">℗ 2005 Copyright © – Def Jam Island<br>
Novák Edited Video* All rights reserved®</span><br>
</span><br>
<div style="text-align: center"><span style="font-family: 'Trebuchet MS'"><br>
<div class="bbCodeBlock bbCodeVfcHH HiddenContent">
<div class="attribution type">Hidden Content:</div>
<blockquote>You must either reply or click 'Like' to see the hidden information contained here.</blockquote>
</div></span><br>
​</div>
<div class="messageTextEndMarker">&nbsp;</div>
</blockquote>
</article>]]></description>
                <author><![CDATA[Fan Made]]></author>
                </item>

                
                <item>
                <title><![CDATA[【UPSCALED】Richard Lugo - Boom (Promo Only) 4K 60fps AI Upscale]]></title>
                <link><![CDATA[https://sharemania.us/threads/richard-lugo-boom-promo-only-4k-60fps-ai-upscale.219750/]]></link>
                <description><![CDATA[<article>
<blockquote class="messageText SelectQuoteContainer ugc baseHtml">
<img src="https://i.ibb.co/r5fGrBW/Richard-Lugo-Boom-Promo-Only-4-K-60fps-AI-Upscale-mp4.jpg" class="bbCodeImage LbImage" alt="[​IMG]" data-url="https://i.ibb.co/r5fGrBW/Richard-Lugo-Boom-Promo-Only-4-K-60fps-AI-Upscale-mp4.jpg" style=""> <br>
<br>
<div class="bbCodeBlock bbCodeVfcHH HiddenContent">
<div class="attribution type">Hidden Content:</div>
<blockquote>You must reply before you can see the hidden data contained here.</blockquote>
</div>
<div class="messageTextEndMarker">&nbsp;</div>
</blockquote>
</article>]]></description>
                <author><![CDATA[babieboyblew]]></author>
                </item>

                </channel></rss>